<svg width="172" height="22" viewBox="0 0 172 22" fill="none" xmlns="http://www.w3.org/2000/svg">
<path d="M5.9635 0.223999C7.2915 0.223999 8.3395 0.375999 9.1075 0.68C9.8915 0.984 10.4515 1.512 10.7875 2.264C11.1235 3 11.2915 4.048 11.2915 5.408C11.2915 6.768 11.1235 7.824 10.7875 8.576C10.4675 9.328 9.9315 9.856 9.1795 10.16C8.4435 10.448 7.4515 10.592 6.2035 10.592C5.5315 10.592 4.8835 10.576 4.2595 10.544C3.6515 10.512 3.0915 10.472 2.5795 10.424C2.0675 10.36 1.6275 10.296 1.2595 10.232C0.9075 10.168 0.6595 10.112 0.5155 10.064L0.5875 8.768C1.4355 8.768 2.3155 8.768 3.2275 8.768C4.1395 8.768 5.0435 8.768 5.9395 8.768C6.7395 8.752 7.3715 8.656 7.8355 8.48C8.3155 8.288 8.6515 7.952 8.8435 7.472C9.0515 6.976 9.1555 6.288 9.1555 5.408C9.1555 4.512 9.0515 3.824 8.8435 3.344C8.6515 2.864 8.3155 2.528 7.8355 2.336C7.3715 2.144 6.7395 2.048 5.9395 2.048C4.6275 2.048 3.4915 2.056 2.5315 2.072C1.5875 2.088 0.9475 2.112 0.6115 2.144L0.2755 0.439999C0.8835 0.375999 1.4515 0.328 1.9795 0.295999C2.5075 0.263999 3.0835 0.248 3.7075 0.248C4.3315 0.231999 5.0835 0.223999 5.9635 0.223999ZM2.3875 0.439999V17H0.2755V0.439999H2.3875ZM19.642 5.024C20.506 5.024 21.234 5.144 21.826 5.384C22.434 5.608 22.89 5.992 23.194 6.536C23.498 7.08 23.65 7.824 23.65 8.768V17H22.042L21.73 14.456L21.586 14.192V8.768C21.586 8.048 21.418 7.536 21.082 7.232C20.762 6.912 20.138 6.752 19.21 6.752C18.602 6.752 17.834 6.784 16.906 6.848C15.994 6.912 15.09 6.984 14.194 7.064L14.002 5.552C14.546 5.456 15.138 5.368 15.778 5.288C16.434 5.208 17.098 5.144 17.77 5.096C18.442 5.048 19.066 5.024 19.642 5.024ZM22.69 9.8L22.666 11.336L17.074 11.36C16.514 11.376 16.122 11.528 15.898 11.816C15.674 12.088 15.562 12.472 15.562 12.968V13.712C15.562 14.32 15.706 14.768 15.994 15.056C16.282 15.328 16.746 15.464 17.386 15.464C17.834 15.464 18.338 15.384 18.898 15.224C19.474 15.048 20.05 14.784 20.626 14.432C21.202 14.08 21.73 13.632 22.21 13.088V14.6C22.034 14.824 21.778 15.088 21.442 15.392C21.122 15.68 20.73 15.968 20.266 16.256C19.818 16.528 19.314 16.76 18.754 16.952C18.21 17.128 17.618 17.216 16.978 17.216C16.29 17.216 15.682 17.096 15.154 16.856C14.626 16.6 14.21 16.232 13.906 15.752C13.618 15.256 13.474 14.656 13.474 13.952V12.68C13.474 11.768 13.754 11.064 14.314 10.568C14.89 10.056 15.69 9.8 16.714 9.8H22.69ZM33.9899 5.024C35.4139 5.024 36.4379 5.552 37.0619 6.608C37.6859 7.648 37.9979 9.184 37.9979 11.216C37.9979 12.72 37.8379 13.92 37.5179 14.816C37.1979 15.696 36.7099 16.328 36.0539 16.712C35.4139 17.096 34.5899 17.288 33.5819 17.288C32.8139 17.288 32.0539 17.184 31.3019 16.976C30.5659 16.768 29.8459 16.448 29.1419 16.016L29.2619 14.792C30.0139 15 30.6779 15.176 31.2539 15.32C31.8299 15.448 32.4379 15.512 33.0779 15.512C33.7659 15.512 34.3099 15.392 34.7099 15.152C35.1259 14.912 35.4299 14.48 35.6219 13.856C35.8139 13.232 35.9099 12.352 35.9099 11.216C35.9099 10.112 35.8219 9.24 35.6459 8.6C35.4699 7.96 35.1899 7.504 34.8059 7.232C34.4379 6.944 33.9419 6.8 33.3179 6.8C32.6779 6.8 32.0459 6.952 31.4219 7.256C30.7979 7.56 30.0699 8.024 29.2379 8.648L29.0459 7.28C29.4779 6.816 29.9659 6.416 30.5099 6.08C31.0539 5.744 31.6219 5.488 32.2139 5.312C32.8219 5.12 33.4139 5.024 33.9899 5.024ZM28.9739 5.312L29.1899 7.736L29.3339 8.048V15.536L29.2379 15.824C29.2859 16.272 29.3099 16.704 29.3099 17.12C29.3259 17.536 29.3339 17.976 29.3339 18.44V21.824H27.2939V5.312H28.9739ZM46.0158 5.024C47.7758 5.024 49.0478 5.344 49.8318 5.984C50.6318 6.624 51.0318 7.576 51.0318 8.84C51.0478 9.88 50.8318 10.696 50.3838 11.288C49.9358 11.864 49.2238 12.152 48.2478 12.152H41.4318V10.568H47.7198C48.2478 10.568 48.5918 10.392 48.7518 10.04C48.9118 9.672 48.9918 9.272 48.9918 8.84C48.9758 8.088 48.7518 7.552 48.3198 7.232C47.8878 6.912 47.1518 6.752 46.1118 6.752C45.2638 6.752 44.5918 6.88 44.0958 7.136C43.6158 7.376 43.2718 7.808 43.0638 8.432C42.8718 9.04 42.7758 9.896 42.7758 11C42.7758 12.248 42.8958 13.2 43.1358 13.856C43.3918 14.512 43.7918 14.96 44.3358 15.2C44.8798 15.44 45.5998 15.56 46.4958 15.56C47.1198 15.56 47.7998 15.536 48.5358 15.488C49.2878 15.424 49.9598 15.352 50.5518 15.272L50.7678 16.64C50.3998 16.784 49.9438 16.904 49.3998 17C48.8718 17.096 48.3198 17.168 47.7438 17.216C47.1838 17.264 46.6798 17.288 46.2318 17.288C44.8878 17.288 43.8078 17.088 42.9918 16.688C42.1758 16.272 41.5758 15.616 41.1918 14.72C40.8238 13.808 40.6398 12.608 40.6398 11.12C40.6398 9.584 40.8238 8.376 41.1918 7.496C41.5758 6.6 42.1598 5.968 42.9438 5.6C43.7438 5.216 44.7678 5.024 46.0158 5.024ZM55.6904 5.312L55.9544 7.544L56.1464 7.904V17H54.1064V5.312H55.6904ZM61.4264 5.024L61.1864 6.944H60.5144C59.8264 6.944 59.1384 7.088 58.4504 7.376C57.7624 7.648 56.9224 8.04 55.9304 8.552L55.7624 7.28C56.6264 6.576 57.4904 6.024 58.3544 5.624C59.2344 5.224 60.0824 5.024 60.8984 5.024H61.4264ZM70.0272 0.199999C71.3392 0.199999 72.4432 0.343999 73.3392 0.631999C74.2512 0.903999 74.9792 1.36 75.5232 2C76.0832 2.64 76.4912 3.512 76.7472 4.616C77.0032 5.704 77.1312 7.072 77.1312 8.72C77.1312 10.368 77.0032 11.744 76.7472 12.848C76.4912 13.936 76.0832 14.8 75.5232 15.44C74.9792 16.08 74.2512 16.544 73.3392 16.832C72.4432 17.104 71.3392 17.24 70.0272 17.24C68.7632 17.24 67.6032 17.216 66.5472 17.168C65.4912 17.12 64.4832 17.064 63.5232 17L65.0592 14.288C65.6672 14.32 66.3872 14.352 67.2192 14.384C68.0672 14.4 69.0032 14.408 70.0272 14.408C70.8432 14.408 71.4832 14.248 71.9472 13.928C72.4272 13.592 72.7632 13.008 72.9552 12.176C73.1632 11.344 73.2672 10.192 73.2672 8.72C73.2672 7.248 73.1632 6.096 72.9552 5.264C72.7632 4.432 72.4272 3.848 71.9472 3.512C71.4832 3.176 70.8432 3.008 70.0272 3.008C69.0512 3.008 68.1792 3.016 67.4112 3.032C66.6432 3.032 65.8912 3.032 65.1552 3.032L63.5232 0.439999C64.4832 0.375999 65.4832 0.32 66.5232 0.271999C67.5792 0.223999 68.7472 0.199999 70.0272 0.199999ZM67.1952 0.439999V17H63.5232V0.439999H67.1952ZM85.306 4.832C87.306 4.832 88.738 5.176 89.602 5.864C90.482 6.536 90.922 7.544 90.922 8.888C90.938 9.976 90.666 10.792 90.106 11.336C89.546 11.864 88.578 12.128 87.202 12.128H80.578V10.136H86.218C86.762 10.136 87.106 10.024 87.25 9.8C87.41 9.56 87.49 9.232 87.49 8.816C87.474 8.256 87.306 7.872 86.986 7.664C86.682 7.44 86.162 7.328 85.426 7.328C84.77 7.328 84.258 7.416 83.89 7.592C83.522 7.768 83.266 8.104 83.122 8.6C82.978 9.096 82.906 9.816 82.906 10.76C82.906 11.752 82.994 12.52 83.17 13.064C83.346 13.592 83.642 13.96 84.058 14.168C84.49 14.376 85.082 14.48 85.834 14.48C86.378 14.48 87.05 14.464 87.85 14.432C88.666 14.384 89.482 14.312 90.298 14.216L90.634 16.4C90.17 16.624 89.642 16.8 89.05 16.928C88.458 17.056 87.85 17.144 87.226 17.192C86.602 17.256 86.002 17.288 85.426 17.288C83.922 17.288 82.706 17.072 81.778 16.64C80.866 16.192 80.202 15.512 79.786 14.6C79.386 13.688 79.186 12.52 79.186 11.096C79.186 9.544 79.394 8.312 79.81 7.4C80.226 6.488 80.882 5.832 81.778 5.432C82.674 5.032 83.85 4.832 85.306 4.832ZM100.701 4.832C102.269 4.832 103.389 5.312 104.061 6.272C104.749 7.216 105.093 8.784 105.093 10.976C105.093 11.888 105.005 12.728 104.829 13.496C104.669 14.264 104.373 14.936 103.941 15.512C103.525 16.072 102.941 16.512 102.189 16.832C101.437 17.136 100.461 17.288 99.2609 17.288C98.8449 17.288 98.3649 17.264 97.8209 17.216C97.2769 17.184 96.7169 17.128 96.1409 17.048C95.5809 16.984 95.0449 16.896 94.5329 16.784C94.0209 16.656 93.5809 16.512 93.2129 16.352L96.0449 14.312C96.3489 14.408 96.6849 14.496 97.0529 14.576C97.4209 14.64 97.7969 14.688 98.1809 14.72C98.5649 14.736 98.9009 14.736 99.1889 14.72C99.7329 14.704 100.165 14.592 100.485 14.384C100.821 14.16 101.061 13.784 101.205 13.256C101.349 12.712 101.421 11.96 101.421 11C101.421 10.12 101.357 9.44 101.229 8.96C101.117 8.464 100.901 8.12 100.581 7.928C100.277 7.72 99.8449 7.616 99.2849 7.616C98.7569 7.616 98.2769 7.728 97.8449 7.952C97.4129 8.176 96.9329 8.472 96.4049 8.84L96.1409 7.16C96.5569 6.712 97.0049 6.312 97.4849 5.96C97.9649 5.608 98.4769 5.336 99.0209 5.144C99.5649 4.936 100.125 4.832 100.701 4.832ZM96.7649 0.199999L96.7889 4.04C96.7889 4.584 96.7569 5.112 96.6929 5.624C96.6449 6.12 96.5489 6.608 96.4049 7.088L96.7409 7.4L96.7649 16.52L93.2129 16.352V0.199999H96.7649ZM110.967 5.144V12.944C110.967 13.44 111.071 13.792 111.279 14C111.503 14.208 111.855 14.312 112.335 14.312C112.831 14.312 113.319 14.224 113.799 14.048C114.295 13.856 114.903 13.56 115.623 13.16L115.911 15.104C115.047 15.856 114.199 16.416 113.367 16.784C112.535 17.152 111.679 17.336 110.799 17.336C108.543 17.336 107.415 16.232 107.415 14.024V5.144H110.967ZM118.815 5.144V17H116.007L115.599 14.672L115.263 14.336V5.144H118.815ZM126.993 4.832C128.369 4.832 129.457 4.96 130.257 5.216C131.073 5.472 131.657 5.872 132.009 6.416C132.377 6.96 132.561 7.688 132.561 8.6C132.561 9.48 132.385 10.2 132.033 10.76C131.681 11.304 131.089 11.704 130.257 11.96C129.441 12.216 128.345 12.344 126.969 12.344C125.593 12.344 124.489 12.216 123.657 11.96C122.841 11.704 122.249 11.304 121.881 10.76C121.529 10.216 121.353 9.496 121.353 8.6C121.353 7.704 121.529 6.984 121.881 6.44C122.249 5.88 122.849 5.472 123.681 5.216C124.513 4.96 125.617 4.832 126.993 4.832ZM126.969 7.016C126.089 7.016 125.481 7.136 125.145 7.376C124.809 7.6 124.641 8.008 124.641 8.6C124.641 9.192 124.809 9.608 125.145 9.848C125.481 10.088 126.089 10.208 126.969 10.208C127.849 10.208 128.449 10.088 128.769 9.848C129.089 9.608 129.249 9.192 129.249 8.6C129.249 8.008 129.089 7.6 128.769 7.376C128.449 7.136 127.849 7.016 126.969 7.016ZM133.929 5.144L133.737 6.656L130.569 7.064L129.705 5.144H133.929ZM123.393 11.624L125.169 11.936C124.945 12.064 124.785 12.264 124.689 12.536C124.609 12.808 124.633 13.064 124.761 13.304C124.889 13.544 125.169 13.688 125.601 13.736L129.969 14.24C131.217 14.368 132.097 14.72 132.609 15.296C133.121 15.856 133.377 16.68 133.377 17.768C133.377 18.792 133.169 19.576 132.753 20.12C132.337 20.68 131.673 21.064 130.761 21.272C129.849 21.48 128.633 21.584 127.113 21.584C125.865 21.584 124.833 21.52 124.017 21.392C123.217 21.28 122.577 21.088 122.097 20.816C121.633 20.544 121.305 20.184 121.113 19.736C120.937 19.304 120.849 18.76 120.849 18.104C120.849 17.608 120.937 17.184 121.113 16.832C121.289 16.464 121.585 16.136 122.001 15.848C122.433 15.56 123.033 15.296 123.801 15.056L125.553 14.432L126.825 14.936L125.865 15.56C125.465 15.848 125.137 16.096 124.881 16.304C124.641 16.496 124.465 16.688 124.353 16.88C124.257 17.072 124.209 17.328 124.209 17.648C124.209 18.016 124.289 18.296 124.449 18.488C124.609 18.696 124.897 18.832 125.313 18.896C125.745 18.976 126.329 19.016 127.065 19.016C127.833 19.016 128.433 18.976 128.865 18.896C129.297 18.832 129.593 18.704 129.753 18.512C129.929 18.32 130.017 18.048 130.017 17.696C130.017 17.392 129.953 17.168 129.825 17.024C129.713 16.88 129.513 16.776 129.225 16.712C128.953 16.632 128.569 16.56 128.073 16.496L124.353 16.088C123.729 16.024 123.241 15.856 122.889 15.584C122.537 15.312 122.289 14.984 122.145 14.6C122.017 14.2 121.985 13.8 122.049 13.4C122.113 13 122.257 12.64 122.481 12.32C122.721 12 123.025 11.768 123.393 11.624ZM140.939 4.832C142.315 4.832 143.403 4.96 144.203 5.216C145.019 5.472 145.603 5.872 145.955 6.416C146.323 6.96 146.507 7.688 146.507 8.6C146.507 9.48 146.331 10.2 145.979 10.76C145.627 11.304 145.035 11.704 144.203 11.96C143.387 12.216 142.291 12.344 140.915 12.344C139.539 12.344 138.435 12.216 137.603 11.96C136.787 11.704 136.195 11.304 135.827 10.76C135.475 10.216 135.299 9.496 135.299 8.6C135.299 7.704 135.475 6.984 135.827 6.44C136.195 5.88 136.795 5.472 137.627 5.216C138.459 4.96 139.563 4.832 140.939 4.832ZM140.915 7.016C140.035 7.016 139.427 7.136 139.091 7.376C138.755 7.6 138.587 8.008 138.587 8.6C138.587 9.192 138.755 9.608 139.091 9.848C139.427 10.088 140.035 10.208 140.915 10.208C141.795 10.208 142.395 10.088 142.715 9.848C143.035 9.608 143.195 9.192 143.195 8.6C143.195 8.008 143.035 7.6 142.715 7.376C142.395 7.136 141.795 7.016 140.915 7.016ZM147.875 5.144L147.683 6.656L144.515 7.064L143.651 5.144H147.875ZM137.339 11.624L139.115 11.936C138.891 12.064 138.731 12.264 138.635 12.536C138.555 12.808 138.579 13.064 138.707 13.304C138.835 13.544 139.115 13.688 139.547 13.736L143.915 14.24C145.163 14.368 146.043 14.72 146.555 15.296C147.067 15.856 147.323 16.68 147.323 17.768C147.323 18.792 147.115 19.576 146.699 20.12C146.283 20.68 145.619 21.064 144.707 21.272C143.795 21.48 142.579 21.584 141.059 21.584C139.811 21.584 138.779 21.52 137.963 21.392C137.163 21.28 136.523 21.088 136.043 20.816C135.579 20.544 135.251 20.184 135.059 19.736C134.883 19.304 134.795 18.76 134.795 18.104C134.795 17.608 134.883 17.184 135.059 16.832C135.235 16.464 135.531 16.136 135.947 15.848C136.379 15.56 136.979 15.296 137.747 15.056L139.499 14.432L140.771 14.936L139.811 15.56C139.411 15.848 139.083 16.096 138.827 16.304C138.587 16.496 138.411 16.688 138.299 16.88C138.203 17.072 138.155 17.328 138.155 17.648C138.155 18.016 138.235 18.296 138.395 18.488C138.555 18.696 138.843 18.832 139.259 18.896C139.691 18.976 140.275 19.016 141.011 19.016C141.779 19.016 142.379 18.976 142.811 18.896C143.243 18.832 143.539 18.704 143.699 18.512C143.875 18.32 143.963 18.048 143.963 17.696C143.963 17.392 143.899 17.168 143.771 17.024C143.659 16.88 143.459 16.776 143.171 16.712C142.899 16.632 142.515 16.56 142.019 16.496L138.299 16.088C137.675 16.024 137.187 15.856 136.835 15.584C136.483 15.312 136.235 14.984 136.091 14.6C135.963 14.2 135.931 13.8 135.995 13.4C136.059 13 136.203 12.64 136.427 12.32C136.667 12 136.971 11.768 137.339 11.624ZM155.079 4.832C157.079 4.832 158.511 5.176 159.375 5.864C160.255 6.536 160.695 7.544 160.695 8.888C160.711 9.976 160.439 10.792 159.879 11.336C159.319 11.864 158.351 12.128 156.975 12.128H150.351V10.136H155.991C156.535 10.136 156.879 10.024 157.023 9.8C157.183 9.56 157.263 9.232 157.263 8.816C157.247 8.256 157.079 7.872 156.759 7.664C156.455 7.44 155.935 7.328 155.199 7.328C154.543 7.328 154.031 7.416 153.663 7.592C153.295 7.768 153.039 8.104 152.895 8.6C152.751 9.096 152.679 9.816 152.679 10.76C152.679 11.752 152.767 12.52 152.943 13.064C153.119 13.592 153.415 13.96 153.831 14.168C154.263 14.376 154.855 14.48 155.607 14.48C156.151 14.48 156.823 14.464 157.623 14.432C158.439 14.384 159.255 14.312 160.071 14.216L160.407 16.4C159.943 16.624 159.415 16.8 158.823 16.928C158.231 17.056 157.623 17.144 156.999 17.192C156.375 17.256 155.775 17.288 155.199 17.288C153.695 17.288 152.479 17.072 151.551 16.64C150.639 16.192 149.975 15.512 149.559 14.6C149.159 13.688 148.959 12.52 148.959 11.096C148.959 9.544 149.167 8.312 149.583 7.4C149.999 6.488 150.655 5.832 151.551 5.432C152.447 5.032 153.623 4.832 155.079 4.832ZM165.794 5.144L166.226 7.496L166.562 7.808V17H163.01V5.144H165.794ZM171.578 4.832L171.242 8.12H170.258C169.698 8.12 169.114 8.2 168.506 8.36C167.898 8.52 167.13 8.76 166.202 9.08L165.962 7.088C166.794 6.352 167.634 5.792 168.482 5.408C169.33 5.024 170.154 4.832 170.954 4.832H171.578Z" fill="black"/>
</svg>
